<?xml version="1.0" standalone="yes"?>
<svg xmlns="http://www.w3.org/2000/svg" width="1000" height="160">
<path style="fill:#ffffff; stroke:none;" d="M0 0L0 160L1000 160L1000 0L992 0L993 116L992 159L16 159C16 142.554 17.4451 125.369 15.8958 109C15.1103 100.701 10.828 93.6677 10.7099 85C10.5858 75.8964 15.0749 68.6738 15.8958 60C17.7543 40.3649 16 19.7294 16 0L0 0z"/>
<path style="fill:#ffffff; stroke:none;" d="M16 0L16 62C20.3252 57.5392 23.8384 52.6893 29 49.0432C41.7397 40.044 59.9162 38.2675 74 45.3773C81.3641 49.0948 87.4223 55.7569 91.2153 63C92.4922 65.4385 94.7038 68.9568 93.6435 71.8148C92.3319 75.3504 87.0187 77.2649 84 79C74.5275 84.4447 65.0847 90.7791 55 95C52.4702 89.1291 48.9781 83.6601 46 78C51.3166 76.0652 56.282 73.1115 61 70C55.2303 64.5938 46.7944 67.3768 43.1397 74.0039C39.1178 81.2967 41.2362 91.5055 48.0185 96.3472C54.0855 100.678 61.9963 99.0697 68 95.5247C71.1565 93.6609 75.0013 89.3706 79 91.0208C83.4491 92.8569 87.7732 98.5097 90.9614 102C92.2122 103.369 93.9444 104.982 93.9444 107C93.9444 113.204 81.6788 119.413 77 121.88C56.1314 132.88 29.7741 127.422 17 107C14.9149 111.969 16 118.65 16 124L16 159L758 159C752.716 156.762 745.112 158.491 740.318 155.012C737.769 153.162 738.02 149.806 738.001 147C737.957 140.667 738 134.333 738 128C749.869 129.598 771.153 138.109 780.272 125.812C782.938 122.217 782.979 117.27 782.999 113C783.048 102.944 785.599 88.4417 781.852 79.0039C780.015 74.3767 775.996 71.7219 771 72.1242C761.847 72.8612 758.442 84.6274 765.225 90.5664C768.806 93.7023 773.788 93.2446 778 92L778 122C768.813 123.237 760.955 125.129 752 121.095C747.768 119.189 744.28 116.219 741.004 112.985C713.276 85.612 737.69 37.3523 776 41.1705C780.75 41.6439 785.662 42.9041 790 44.9012C816.552 57.1236 815.01 85.3017 815 110C814.992 131.164 806.683 155.831 782 158C787.707 160.395 795.846 159 802 159L844 159L992 159L992 125L961 125C961 111.334 961.07 97.6658 960.999 84C960.975 79.2682 960.514 71.951 954.003 72.2569C948.014 72.5384 948.022 79.5748 948.001 84C947.934 97.6659 948 111.334 948 125L916 125L916 88C916 75.4413 916.447 61.9781 925.326 52.0903C943.348 32.0178 986.697 39.2897 991 68C993.599 61.8061 992 52.6858 992 46L992 0L505 0C507.846 5.99022 512.641 10.7777 515 17C504.594 19.9977 494.688 26.4391 485 31.2469C481.749 32.8604 476.152 35.9563 474.06 30.9259C472.599 27.4118 476.873 24.1546 479.002 22C486.027 14.8885 494.235 8.18369 500 0L16 0z"/>
<path style="fill:#1e1e1e; stroke:none;" d="M515 17C513.852 12.1158 507.446 -1.20621 500.985 0.662048C494.967 2.40257 489.296 10.7042 485 15C481.744 18.2558 472.343 24.7664 473.06 29.9807C474.186 38.1722 484.263 32.1151 488 30.2469L498 25.2469C503.625 22.4343 509.194 19.4173 515 17M609 1.63812C585.482 8.43817 597.723 44.9373 621 38.2106C632.29 34.9479 638.144 20.2854 631.991 10.0008C627.238 2.05609 617.75 -0.891739 609 1.63812M61 69C56.3245 72.5649 51.1935 75.2674 46 78C48.1832 83.9994 51.6728 89.5637 55 95C65.538 91.9584 75.5214 84.4485 85 79C87.9348 77.313 93.2055 75.4252 94.2114 71.8148C94.9284 69.2416 93.2822 66.2439 92.2153 64C89.1653 57.5853 84.8213 51.9391 79 47.7894C74.2342 44.392 68.7099 42.7063 63 41.7546C48.6926 39.3701 33.6498 42.8415 23.0401 53.0934C5.22356 70.309 6.30379 102.957 26.0039 118.319C41.4733 130.383 63.3476 130.359 80 120.769C84.18 118.361 96.1587 112.034 94.6543 106C93.4706 101.252 83.5231 91.983 79 90.3125C74.9151 88.8038 71.1527 92.919 68 94.9066C62.1318 98.6063 55.1477 100.638 49.0046 96.3472C39.1515 89.4652 38.1232 70.8401 52 67.4491C55.1324 66.6836 58.1106 67.9473 61 69M290 41.439C277.109 43.4525 265.332 50.6688 258.479 62C245.112 84.1012 255.588 114.235 279 124.124C286.874 127.45 296.578 127.913 305 126.7C310.231 125.946 315.532 124.105 320 121.289C350.491 102.072 345.829 53.0796 310 42.7816C303.663 40.9603 296.516 40.4213 290 41.439M349 157L381 157C381 134.088 379.918 110.882 381.04 88C381.394 80.7894 387.302 70.5022 395.996 73.7461C404.818 77.0377 405.957 88.9201 397.906 93.7176C393.507 96.3388 389.354 94.6647 385 93L385 126C393.412 127.063 401.878 128.015 410 124.934C436.985 114.701 444.521 77.6344 426.532 56.0147C415.856 43.1835 397.877 38.7793 382 42.2114C375.357 43.6475 369.121 46.6823 364.001 51.1852C358.36 56.146 354.348 61.9198 351.865 69C348.314 79.124 349 90.4384 349 101L349 157M493 69C488.324 72.565 483.193 75.2674 478 78C480.183 83.9994 483.673 89.5637 487 95C497.538 91.9584 507.521 84.4485 517 79C519.935 77.313 525.206 75.4252 526.211 71.8148C526.928 69.2418 525.282 66.2438 524.215 64C521.165 57.5853 516.821 51.9391 511 47.7894C506.234 44.3921 500.71 42.7063 495 41.7546C480.257 39.2974 464.681 43.083 454.093 54.0401C437.396 71.3202 438.868 103.396 458.004 118.319C473.573 130.461 496.427 130.562 513 120.293C516.958 117.841 528.094 111.774 526.654 106C525.492 101.336 515.449 91.8043 511 90.1613C506.993 88.6815 503.082 92.9635 500 94.9066C494.132 98.6066 487.147 100.638 481.005 96.3472C471.196 89.4965 470.208 70.8194 484 67.4491C487.132 66.6836 490.111 67.9473 493 69M643 125L675 125L675 85C675.007 80.6129 674.913 72.9903 681 72.5463C686.956 72.1119 687.939 79.7578 687.996 84C688.181 97.6611 688 111.337 688 125L719 125L719 85C719 75.7224 719.635 66.497 715.175 58C703.098 34.99 660.767 34.7759 647.955 57C642.989 65.6153 643 76.3728 643 86L643 125M778 122L778 92C774.259 92.8883 770.476 93.5154 767.044 91.2577C758.576 85.688 762.087 70.9642 773 72.2724C777.578 72.8212 780.884 76.8235 782.196 81C785.189 90.5292 783.233 104.058 782.985 114C782.883 118.103 782.334 122.569 779.57 125.812C769.286 137.879 750.681 129.036 738 128L738 147C738.005 149.271 737.552 152.475 739.028 154.411C741.89 158.165 751.719 157.726 756 158.282C775.345 160.794 799.327 159.597 809.598 140C812.546 134.375 813.476 128.197 814.282 122C815.274 114.363 815 106.693 815 99C815 85.621 815.541 70.4964 807.557 59C791.019 35.1866 752.765 34.9838 736.221 59C722.529 78.8758 727.803 110.646 751 121.095C759.943 125.123 768.79 123.9 778 122M874 69L874 71C870.189 72.1 861.868 74.7613 860.828 79.2099C859.786 83.6665 865.977 91.1546 868 95C873.458 93.7512 878.166 90.4673 883 87.7191C891.652 82.8 900.194 77.6384 909 73C906.039 62.1753 899.808 52.2882 890 46.4753C869.327 34.2234 839.193 42.5073 828.377 64C817.987 84.6485 825.399 111.62 846 122.676C855.772 127.92 867.283 128.738 878 126.689C886.879 124.992 895.053 120.572 901.999 114.905C904.548 112.826 909.181 109.888 907.824 105.996C906.169 101.248 899.641 96.3585 896 93.0594C894.328 91.5443 892.444 89.7047 890 89.8819C887.042 90.0965 884.379 92.9366 882 94.4522C875.03 98.8933 866.738 101.039 860.108 94.7863C858.379 93.1557 857.017 91.2148 856.148 89C853.112 81.2588 855.973 69.6579 865 67.4491C868.132 66.6828 871.111 67.9475 874 69M916 125L948 125C948 111.667 947.936 98.3326 948.001 85C948.022 80.7226 948.117 72.9789 954.003 72.5463C959.956 72.1088 960.939 79.7631 960.996 84C961.181 97.6611 961 111.337 961 125L993 125L993 87C993 77.1092 992.742 65.7946 987.637 57C974.687 34.6912 932.584 35.0686 920.634 58C915.859 67.1642 916 77.9428 916 88L916 125M222 53C221.1 49.9592 221.008 47.1691 221 44L191 44L191 125L222 125C222 109.179 216.958 80.1986 236 73.3881C240.237 71.8727 244.57 72.0005 249 72L249 42C238.846 42.0067 227.668 43.486 222 53M565 53L565 44L535 44L535 125L567 125C567 108.705 561.166 80.0057 581 73.1088C584.867 71.7643 588.97 72.0004 593 72L593 42C581.338 42.0077 573.423 44.7559 565 53M103 44L103 83C103 92.4745 102.696 102.396 107.417 111C119.885 133.725 161.947 132.91 174.468 111C179.417 102.338 179 92.6002 179 83L179 44L148 44C148 56.9101 148.819 70.123 147.91 83C147.628 87.0046 146.397 94.5154 141 94.5154C135.603 94.5154 134.372 87.0046 134.09 83C133.181 70.1229 134 56.9101 134 44L103 44M599 44L599 125L631 125L631 44L599 44z"/>
<path style="fill:#ffffff; stroke:none;" d="M293.004 73.7431C280.346 78.58 286.846 99.39 299.999 94.8125C313.858 89.9896 306.543 68.5692 293.004 73.7431z"/>
</svg>
